<svg width="42" height="43" viewBox="0 0 42 43" fill="none" xmlns="http://www.w3.org/2000/svg">
<path d="M27.0094 31.472C27.0094 31.6206 27.1777 31.7396 27.39 31.7396C27.6315 31.7619 27.7999 31.6429 27.7999 31.472C27.7999 31.3233 27.6315 31.2043 27.4193 31.2043C27.1997 31.182 27.0094 31.301 27.0094 31.472ZM29.2857 31.1374C29.337 31.2861 29.1906 31.4571 28.971 31.5017C28.7807 31.576 28.5611 31.5017 28.5172 31.353C28.4733 31.2043 28.6123 31.0334 28.8319 30.9665C29.0222 30.9144 29.2345 30.9888 29.2857 31.1374ZM26.0505 31.0111C26.2628 31.0631 26.4092 31.2043 26.3872 31.3753C26.3652 31.524 26.1749 31.6206 25.9553 31.5686C25.7431 31.5166 25.5967 31.3753 25.6186 31.2266C25.6406 31.0854 25.8382 30.9888 26.0505 31.0111ZM21.2342 2.52441C31.3865 2.52441 39.1525 10.3523 39.1525 20.6631C39.1525 28.9073 34.0435 35.962 26.7459 38.4449C25.8089 38.6159 25.4796 38.0286 25.4796 37.5454C25.4796 37.0845 25.5015 34.5422 25.5015 32.981C25.5015 32.981 30.6252 34.0961 31.7012 30.7657C31.7012 30.7657 32.5356 28.6025 33.736 28.0449C33.736 28.0449 35.4122 26.8778 33.6189 26.9001C33.6189 26.9001 31.7964 27.0488 30.7936 28.8181C29.1906 31.6875 26.5043 30.8624 25.4576 30.3717C25.2893 29.1823 24.8135 28.3572 24.2865 27.8665C28.3781 27.4056 32.5064 26.8035 32.5064 19.6521C32.5064 17.6078 31.9501 16.5819 30.7789 15.2735C30.9692 14.7903 31.5914 12.798 30.5886 10.2259C29.0588 9.74272 25.5381 12.2331 25.5381 12.2331C24.0742 11.8168 22.5005 11.6012 20.9414 11.6012C19.3824 11.6012 17.8087 11.8168 16.3447 12.2331C16.3447 12.2331 12.824 9.73528 11.2942 10.2259C10.2914 12.8055 10.9136 14.7903 11.1039 15.2735C9.93279 16.5893 9.21547 17.6152 9.21547 19.6521C9.21547 26.8258 13.5267 27.3982 17.6183 27.8665C16.9449 28.4538 16.374 29.5689 16.374 31.3158C16.374 33.8211 16.396 36.921 16.396 37.5306C16.396 38.0138 16.0593 38.6011 15.1297 38.4301C7.81011 35.962 2.84744 28.9073 2.84744 20.6631C2.84744 10.3523 11.082 2.52441 21.2342 2.52441ZM32.0379 28.1639C32.1331 28.2382 32.1111 28.4092 31.9867 28.5504C31.8696 28.6694 31.7012 28.7214 31.606 28.6248C31.5109 28.5504 31.5329 28.3795 31.6573 28.2382C31.7744 28.1193 31.9427 28.0672 32.0379 28.1639ZM32.8284 27.5617C32.8797 27.6584 32.8065 27.7773 32.6601 27.8517C32.543 27.926 32.3966 27.9037 32.3453 27.7996C32.2941 27.703 32.3673 27.584 32.5137 27.5097C32.6601 27.4651 32.7772 27.4874 32.8284 27.5617ZM30.4569 30.2082C30.574 30.3048 30.5301 30.5279 30.3617 30.6691C30.1934 30.8401 29.9811 30.8624 29.8859 30.7434C29.7908 30.6468 29.8347 30.4238 29.9811 30.2825C30.1421 30.1116 30.3617 30.0893 30.4569 30.2082ZM31.2913 29.1154C31.4084 29.1898 31.4084 29.383 31.2913 29.554C31.1742 29.725 30.9766 29.7993 30.8814 29.725C30.7643 29.6284 30.7643 29.4351 30.8814 29.2641C30.9839 29.0931 31.1742 29.0188 31.2913 29.1154Z" fill="#AED6DC"/>
</svg>
