<svg width="30" height="33" viewBox="0 0 30 33" fill="none" xmlns="http://www.w3.org/2000/svg">
<g clip-path="url(#clip0_85_81)">
<path d="M0 2.36363C0 1.05806 0.98625 0 2.20312 0H27.7969C29.0138 0 30 1.05806 30 2.36363V30.6364C30 31.9419 29.0138 33 27.7969 33H2.20312C0.98625 33 0 31.9419 0 30.6364V2.36363ZM9.26812 27.6251V12.7236H4.76625V27.6251H9.26812ZM7.01813 10.6879C8.5875 10.6879 9.56437 9.54525 9.56437 8.11388C9.53625 6.65156 8.58938 5.53988 7.04813 5.53988C5.50688 5.53988 4.5 6.65363 4.5 8.11388C4.5 9.54525 5.47687 10.6879 6.98812 10.6879H7.01813ZM16.2206 27.6251V19.3029C16.2206 18.8574 16.2506 18.4119 16.3706 18.0943C16.695 17.2054 17.4356 16.2834 18.6806 16.2834C20.31 16.2834 20.9606 17.6488 20.9606 19.6536V27.6251H25.4625V19.0781C25.4625 14.4994 23.2425 12.3709 20.28 12.3709C17.8913 12.3709 16.8206 13.8146 16.2206 14.8314V14.883H16.1906C16.2006 14.8658 16.2106 14.8486 16.2206 14.8314V12.7236H11.7206C11.7769 14.1219 11.7206 27.6251 11.7206 27.6251H16.2206Z" fill="#AED6DC"/>
</g>
<defs>
<clipPath id="clip0_85_81">
<rect width="30" height="33" fill="white"/>
</clipPath>
</defs>
</svg>
