<svg width="40" height="38" viewBox="0 0 40 38" fill="none" xmlns="http://www.w3.org/2000/svg">
<path d="M12.565 35.6252C27.66 35.6252 35.9175 23.7431 35.9175 13.4569C35.9175 13.1244 35.9175 12.7872 35.9025 12.4547C37.5101 11.3491 38.8977 9.98029 40 8.41243C38.4983 9.04145 36.9069 9.45602 35.2775 9.64268C36.9938 8.66807 38.2793 7.13461 38.895 5.32731C37.2825 6.23485 35.5175 6.87194 33.6775 7.21068C32.4405 5.95911 30.8035 5.12999 29.0202 4.85173C27.2369 4.57347 25.4068 4.86162 23.8133 5.67153C22.2199 6.48144 20.952 7.76792 20.2061 9.3317C19.4602 10.8955 19.2779 12.6493 19.6875 14.3214C16.4244 14.166 13.232 13.3607 10.3176 11.9577C7.40317 10.5547 4.83171 8.58544 2.77 6.17756C1.72335 7.89488 1.40393 9.92626 1.87662 11.8592C2.3493 13.7921 3.57864 15.4817 5.315 16.5848C4.01385 16.5428 2.7413 16.2109 1.6 15.6158V15.7227C1.60224 17.5217 2.25827 19.2648 3.45718 20.6574C4.6561 22.0499 6.32437 23.0065 8.18 23.3654C7.47566 23.5498 6.74807 23.6417 6.0175 23.6386C5.50246 23.64 4.98845 23.5947 4.4825 23.5032C5.00697 25.0518 6.02818 26.4058 7.40312 27.3756C8.77805 28.3453 10.4378 28.8822 12.15 28.9111C9.24139 31.0813 5.6485 32.2584 1.95 32.2527C1.2983 32.2553 0.647058 32.2196 0 32.1458C3.75379 34.4193 8.11324 35.6265 12.565 35.6252Z" fill="#AED6DC"/>
</svg>
