<svg width="54" height="45" viewBox="0 0 54 45" fill="none" xmlns="http://www.w3.org/2000/svg">
<g clip-path="url(#clip0_87_88)">
<path d="M41.8712 28.4198C39.3848 28.4198 37.0551 27.3836 34.9384 25.6969L35.4538 23.3157L35.4762 23.2274C35.9352 20.6921 37.3912 16.4366 41.8712 16.4366C45.2309 16.4366 47.9637 19.1266 47.9637 22.4336C47.9523 25.7298 45.2198 28.4198 41.8712 28.4198ZM41.8712 10.3624C36.1479 10.3624 31.7131 14.0224 29.9102 20.0416C27.155 15.9736 25.0717 11.0901 23.8511 6.97803H17.6914V22.7533C17.6914 25.8621 15.1154 28.3974 11.9571 28.3974C8.79877 28.3974 6.22311 25.8621 6.22311 22.7533V6.97803H0.0627534V22.7533C0.0403434 29.2136 5.38259 34.516 11.9454 34.516C18.5086 34.516 23.8508 29.2136 23.8508 22.7533V20.1077C25.049 22.566 26.5161 25.0463 28.297 27.2513L24.5225 44.713H30.8281L33.5606 32.0466C35.9573 33.5569 38.7125 34.5051 41.8709 34.5051C48.624 34.5051 54.1231 29.0592 54.1231 22.4116C54.1231 15.7751 48.6243 10.3624 41.8712 10.3624Z" fill="#AED6DC"/>
</g>
<defs>
<clipPath id="clip0_87_88">
<rect width="54" height="45" fill="white"/>
</clipPath>
</defs>
</svg>
